<?xml version="1.0" encoding="utf-8"?>
<!-- Generator: Adobe Illustrator 16.0.0, SVG Export Plug-In . SVG Version: 6.00 Build 0)  -->
<!DOCTYPE svg PUBLIC "-//W3C//DTD SVG 1.1//EN" "http://www.w3.org/Graphics/SVG/1.1/DTD/svg11.dtd">
<svg version="1.1" id="Layer_1" xmlns="http://www.w3.org/2000/svg" xmlns:xlink="http://www.w3.org/1999/xlink" x="0px" y="0px"
	 width="322.666px" height="290px" viewBox="0 0 322.666 290" enable-background="new 0 0 322.666 290" xml:space="preserve">
<g>
	<path d="M38.521,221.441c-0.232-0.55-0.464-1.195-0.695-1.934c-0.232-0.738-0.536-1.673-0.913-2.803v26.466h-5.172v-31.333h7.91
		l7.691,19.469l7.389-19.469h7.996v31.333H57.47v-26.466c-0.32,1.304-0.595,2.281-0.826,2.934c-0.232,0.651-0.449,1.253-0.652,1.803
		l-6.563,16.515h-4.432L38.521,221.441z"/>
	<path d="M80.502,238.607c1.13,0,2.114-0.137,2.955-0.412c0.84-0.275,1.528-0.739,2.064-1.391c0.536-0.652,0.935-1.506,1.194-2.564
		c0.262-1.057,0.392-2.354,0.392-3.89v-18.513h5.563v18.426c0,2.579-0.27,4.723-0.805,6.432c-0.537,1.71-1.318,3.079-2.347,4.107
		s-2.296,1.76-3.803,2.194s-3.245,0.651-5.215,0.651c-1.971,0-3.709-0.217-5.215-0.651c-1.507-0.435-2.774-1.166-3.803-2.194
		s-1.812-2.397-2.347-4.107c-0.537-1.709-0.805-3.853-0.805-6.432v-18.426h5.563v18.513c0,1.536,0.131,2.833,0.393,3.89
		c0.26,1.059,0.658,1.912,1.194,2.564c0.536,0.651,1.224,1.115,2.064,1.391C78.387,238.47,79.372,238.607,80.502,238.607z"/>
	<path d="M103.839,211.837v26.64h14.298v4.693h-19.86v-31.333H103.839z"/>
	<path d="M142.951,240.085c-0.319,0.289-0.761,0.637-1.325,1.043s-1.26,0.797-2.086,1.173s-1.781,0.695-2.868,0.956
		s-2.297,0.391-3.629,0.391c-2.202,0-4.078-0.354-5.628-1.064c-1.551-0.709-2.818-1.717-3.803-3.02
		c-0.985-1.305-1.709-2.875-2.173-4.716c-0.464-1.839-0.695-3.874-0.695-6.106v-3.346c0-2.144,0.246-4.085,0.739-5.823
		c0.492-1.738,1.23-3.216,2.216-4.433s2.216-2.151,3.694-2.803c1.478-0.652,3.187-0.979,5.128-0.979
		c2.027,0,3.853,0.275,5.476,0.826c1.622,0.551,3.014,1.246,4.172,2.086l-1.043,1.477c-1.275-0.869-2.564-1.513-3.867-1.934
		c-1.305-0.42-2.884-0.63-4.737-0.63c-1.564,0-2.963,0.276-4.194,0.825c-1.231,0.551-2.26,1.334-3.085,2.348
		s-1.456,2.245-1.891,3.693c-0.435,1.449-0.651,3.058-0.651,4.824v4.346c0,4.144,0.883,7.279,2.65,9.408
		c1.768,2.13,4.36,3.195,7.779,3.195c1.043,0,2.006-0.102,2.891-0.305c0.883-0.202,1.694-0.463,2.434-0.782
		c0.738-0.318,1.391-0.666,1.955-1.043c0.564-0.376,1.035-0.724,1.412-1.043L142.951,240.085z"/>
	<path d="M164.507,233.044h-14.168l-3.824,10.126h-2.086l12.082-31.333h1.912l11.95,31.333h-2.129L164.507,233.044z
		 M150.991,231.349h12.863l-3.737-10.125c-0.464-1.274-0.928-2.514-1.391-3.716c-0.464-1.202-0.884-2.412-1.261-3.629
		c-0.348,1.217-0.746,2.427-1.195,3.629s-0.92,2.441-1.412,3.716L150.991,231.349z"/>
	<path d="M178.239,220.007c-0.928-1.797-1.738-3.506-2.434-5.129v28.292h-1.869v-31.333h2.173l11.821,23.945l11.56-23.945h2.26
		v31.333h-1.869v-27.944c-0.405,0.957-0.812,1.855-1.217,2.695s-0.854,1.725-1.347,2.65l-8.604,17.384h-1.652L178.239,220.007z"/>
	<path d="M208.529,211.837h9.778c3.303,0,5.809,0.754,7.519,2.26c1.709,1.506,2.563,3.709,2.563,6.605v0.956
		c0,2.955-0.876,5.179-2.629,6.671s-4.281,2.238-7.584,2.238h-7.735v12.603h-1.912V211.837z M210.441,213.619v15.167h7.519
		c1.564,0,2.883-0.166,3.954-0.499c1.072-0.334,1.948-0.812,2.63-1.435c0.681-0.623,1.166-1.376,1.456-2.26
		c0.289-0.884,0.435-1.876,0.435-2.978v-0.825c0-1.071-0.146-2.05-0.435-2.934c-0.29-0.884-0.761-1.636-1.413-2.26
		c-0.651-0.622-1.492-1.108-2.521-1.456s-2.281-0.521-3.759-0.521H210.441z"/>
	<path d="M234.734,211.837v31.333h-1.912v-31.333H234.734z"/>
	<path d="M244.12,211.837l15.602,26.553c0.174,0.29,0.398,0.71,0.674,1.26c0.275,0.551,0.5,1.016,0.674,1.391v-29.203h1.868v31.333
		h-2.607l-15.602-26.553c-0.232-0.405-0.471-0.854-0.717-1.348c-0.246-0.492-0.456-0.927-0.63-1.304v29.204h-1.869v-31.333H244.12z"
		/>
	<path d="M289.056,228.699h-7.822v-1.825h9.691v14.081c-0.319,0.289-0.775,0.594-1.369,0.912s-1.312,0.608-2.151,0.869
		c-0.841,0.261-1.797,0.479-2.868,0.652c-1.072,0.174-2.245,0.26-3.521,0.26c-2.202,0-4.092-0.354-5.671-1.064
		c-1.579-0.709-2.876-1.717-3.89-3.02c-1.015-1.305-1.76-2.875-2.238-4.716c-0.478-1.839-0.717-3.874-0.717-6.106v-3.346
		c0-2.144,0.261-4.085,0.782-5.823s1.289-3.216,2.304-4.433c1.014-1.217,2.267-2.151,3.759-2.803
		c1.492-0.652,3.208-0.979,5.149-0.979c2.028,0,3.875,0.275,5.541,0.826s3.078,1.246,4.237,2.086l-1.043,1.477
		c-1.275-0.869-2.586-1.513-3.933-1.934c-1.348-0.42-2.948-0.63-4.803-0.63c-1.564,0-2.97,0.276-4.215,0.825
		c-1.246,0.551-2.304,1.334-3.173,2.348s-1.528,2.245-1.978,3.693c-0.449,1.449-0.673,3.058-0.673,4.824v4.346
		c0,4.144,0.919,7.279,2.759,9.408c1.84,2.13,4.469,3.195,7.888,3.195c1.507,0,2.984-0.167,4.434-0.5
		c1.448-0.333,2.621-0.818,3.52-1.456V228.699z"/>
</g>
<path d="M150.246,26.591c0,0-4.909,13.97,17.746,32.849c22.653,18.878,29.072,31.716,29.072,45.686s-8.684,37.757-34.358,37.757
	s-63.81-18.983-36.247-64.806c0,0-1.888,19.12,14.348,19.12s12.082-17.746,5.663-26.808S141.939,38.295,150.246,26.591z"/>
<rect x="112.244" y="154.126" transform="matrix(0.9576 -0.2881 0.2881 0.9576 -39.8386 52.0576)" width="89.458" height="14.55"/>
<rect x="112.245" y="154.126" transform="matrix(-0.9576 -0.2881 0.2881 -0.9576 260.8029 361.1776)" width="89.458" height="14.55"/>
</svg>
